<svg xmlns="http://www.w3.org/2000/svg" width="142" height="80.717" viewBox="0 0 142 80.717">
    <defs>
        <style>
            .cls-1{fill:#fff}.cls-2{fill:#28a7b9}
        </style>
    </defs>
    <g id="logo">
        <g id="Слой_2" data-name="Слой 2">
            <path id="Path_1" d="M30.6 64.278h4.312l.6-3.053a6.821 6.821 0 0 0-1.193-4.108 7.348 7.348 0 0 0-3.787-2.367 7.9 7.9 0 0 0-2.367-.36H14.1a11.53 11.53 0 0 0-3.976.8 13.13 13.13 0 0 0-3.077 1.789c-2.457 1.993-3.522 4.762-4.733 10.413-.431 1.983-.677 2.963-1.344 6.906-.705 4.184-.341 5.642.417 6.821a7.772 7.772 0 0 0 2.187 2.121 6.555 6.555 0 0 0 2.186.86c1.354.241 13.083.369 17.575.09a14.925 14.925 0 0 0 2.84-.544 10.484 10.484 0 0 0 2.31-1.169 9.812 9.812 0 0 0 2.793-3.086 10.943 10.943 0 0 0 1.524-4.9l-4.307-.066A5.377 5.377 0 0 1 26.7 78.26a5.06 5.06 0 0 1-2.561 1.14L8 79.514a3.266 3.266 0 0 1-2.319-1.188 3.214 3.214 0 0 1-.66-1.926s2.84-13.32 2.987-13.651a5.486 5.486 0 0 1 1.657-2.457 5.325 5.325 0 0 1 3.313-1.06c4.762.062 12.676.1 15.359.18a2.693 2.693 0 0 1 1.212.327 3.105 3.105 0 0 1 1.141.947 4.14 4.14 0 0 1-.09 3.592z" class="cls-1" data-name="Path 1" transform="translate(-.312 -28.646)"/>
            <path id="Path_2" d="M180.886 64.278h4.314l.6-3.053a6.821 6.821 0 0 0-1.193-4.108 7.361 7.361 0 0 0-3.763-2.367 7.9 7.9 0 0 0-2.367-.36h-14.096a11.535 11.535 0 0 0-3.981.8 13.149 13.149 0 0 0-3.072 1.789c-2.461 1.993-3.526 4.762-4.733 10.413-.426 1.983-.677 2.963-1.34 6.906-.71 4.184-.346 5.642.412 6.821a7.838 7.838 0 0 0 2.187 2.121 6.536 6.536 0 0 0 2.191.861c1.349.241 13.078.369 17.57.09a14.925 14.925 0 0 0 2.84-.544 10.669 10.669 0 0 0 2.315-1.169 9.879 9.879 0 0 0 2.793-3.086 11.066 11.066 0 0 0 1.524-4.9l-4.312-.066a5.353 5.353 0 0 1-1.789 3.843 5.041 5.041 0 0 1-2.565 1.141l-16.136.114a3.257 3.257 0 0 1-2.315-1.188 3.148 3.148 0 0 1-.663-1.922s2.84-13.324 2.982-13.655a5.528 5.528 0 0 1 1.657-2.457 5.334 5.334 0 0 1 3.313-1.06c4.762.062 12.671.1 15.359.18a2.726 2.726 0 0 1 1.212.327 3.143 3.143 0 0 1 1.141.947c.805 1.315.152 3.028-.085 3.582z" class="cls-1" data-name="Path 2" transform="translate(-79.461 -28.646)"/>
            <path id="Path_3" d="M75.43 84.362l6.262-29.952h4.577l-2.684 12.165h20.983l2.783-12.165h4.179l-6.167 29.952h-4.373l2.783-12.912-21.38.1L79.8 84.362z" class="cls-1" data-name="Path 3" transform="translate(-39.727 -28.656)"/>
            <path id="Path_4" d="M209.566 74.432h4.175a5.368 5.368 0 0 0-.383 1.586 3.375 3.375 0 0 0 .648 2.722 2.367 2.367 0 0 0 1.254.639h17.177a4.534 4.534 0 0 0 2.39-.847 4.918 4.918 0 0 0 1.628-2.272c.417-.989 1.24-2.935.26-4.09a2.891 2.891 0 0 0-2.286-.8H192.46l.895-4.875h41.653a3.668 3.668 0 0 0 2.494-.7 4.1 4.1 0 0 0 1.358-2.911 3.44 3.44 0 0 0-.473-2.84 2.409 2.409 0 0 0-1.652-.734H220.9a5.5 5.5 0 0 0-3.015 1.16 5.618 5.618 0 0 0-2.021 3.72l-4.312.085a10.347 10.347 0 0 1 5.041-8.312 11.123 11.123 0 0 1 4.607-1.553h15.62a6.958 6.958 0 0 1 4.572 1.922 6.716 6.716 0 0 1 1.695 2.883 8.307 8.307 0 0 1 .066 3.981 9.58 9.58 0 0 1-1.42 3.943 8.742 8.742 0 0 1-1.756 1.955 5.084 5.084 0 0 1 .738.947 7.168 7.168 0 0 1 .385 5.259c-.35 1.68-1.079 5.126-4.307 7.327a10.058 10.058 0 0 1-5.268 1.713c-1.893.057-8.832.246-15.582 0a7.629 7.629 0 0 1-4.975-1.571 6.579 6.579 0 0 1-1.988-3.384 7.266 7.266 0 0 1 .586-4.953z" class="cls-1" data-name="Path 4" transform="translate(-101.363 -28.656)"/>
            <path id="Path_5" d="M101.27 34.572L108.962 0h13.523l-7.555 34.572z" class="cls-2" data-name="Path 5" transform="translate(-53.336)"/>
            <path id="Path_6" d="M80.96 131.642l7.692-34.572h13.523l-7.555 34.572z" class="cls-2" data-name="Path 6" transform="translate(-42.639 -51.124)"/>
            <path id="Path_7" d="M131.39 34.572L139.077 0h.8l-7.559 34.572z" class="cls-2" data-name="Path 7" transform="translate(-69.2)"/>
            <path id="Path_8" d="M110.94 131.642l7.692-34.572h.8l-7.559 34.572z" class="cls-2" data-name="Path 8" transform="translate(-58.429 -51.124)"/>
            <path id="Path_9" d="M77.74 151.313l3.645-16.893h.8l-3.711 16.893z" class="cls-1" data-name="Path 9" transform="translate(-40.944 -70.795)"/>
            <path id="Path_10" d="M74.66 151.313l3.64-16.893h.8l-3.711 16.893z" class="cls-1" data-name="Path 10" transform="translate(-39.321 -70.795)"/>
            <path id="Path_11" d="M71.58 151.313l3.645-16.893h.8l-3.711 16.893z" class="cls-1" data-name="Path 11" transform="translate(-37.699 -70.795)"/>
            <path id="Path_12" d="M44.44 131.192H59.7l.478-2.192h-4.752l-.047-4.871H51.8c-.147.232-.293.473-.431.729A13.674 13.674 0 0 0 49.912 129h-4.43z" class="cls-1" data-name="Path 12" transform="translate(-23.405 -65.376)"/>
            <path id="Path_13" d="M20.585 140.924l-1.59 3.976a81.167 81.167 0 0 0-9.348-1.24A80.937 80.937 0 0 0 0 143.509a37.709 37.709 0 0 1 4.075 6.153 37.19 37.19 0 0 1 2.286 5.268h26.772l2.987-14.02zm8.951 8.155a111.349 111.349 0 0 0-26.752-3.432l-.8-1.093a106.76 106.76 0 0 1 14.422 1.093 107.307 107.307 0 0 1 13.277 2.783z" class="cls-1" data-name="Path 13" transform="translate(0 -74.213)"/>
        </g>
    </g>
</svg>
